<svg width="92" height="52" viewBox="0 0 92 52" fill="none" xmlns="http://www.w3.org/2000/svg">
<path d="M1.5891 45.7552C2.02275 44.9517 3.7897 43.2091 7.22932 40.1947L12.2393 35.8048L0.93457 35.6611L1.09349 31.814C16.7078 31.814 16.7321 31.8219 16.5139 34.9135C16.3388 37.3692 15.986 37.8241 10.4615 42.7222L5.65631 46.979L16.5812 47.1227V51.1029C4.04289 51.1029 2.72576 51.0311 2.16281 50.6985C0.824136 49.903 0.562865 47.6575 1.5891 45.7552Z" fill="#333333"/>
<path d="M76.3776 47.6445L80.9565 47.3785H84.5928C88.229 47.3785 88.229 47.3785 88.229 46.5191C88.229 45.6598 88.229 45.6598 83.1114 46.0482C77.0402 46.0296 76.2564 45.1569 76.418 40.9134C76.5688 36.9864 76.2213 37.154 84.3692 37.0556C92.2532 36.9624 92.1454 36.9279 91.2458 39.1734C90.6748 40.5941 90.6748 40.5941 85.5463 40.6659C80.4178 40.7404 80.4178 40.7404 80.4178 41.3976C80.4178 42.0574 80.4178 42.0574 85.1342 42.0574C91.7118 42.0574 92 42.2596 92 46.849C92 50.9542 91.7091 51.1032 83.6097 51.1032C76.5526 51.1032 76.3533 51.042 76.3695 48.9083L76.3776 47.6445Z" fill="#333333"/>
<path d="M19.2748 43.9251C19.2748 36.3585 18.5503 37.0024 27.0726 37.0024C35.5437 37.0024 35.0346 36.4596 34.8541 45.3086C34.7679 49.5229 34.7302 49.7916 34.1484 50.3636C33.5532 50.9543 33.3727 50.9729 27.6167 51.0367C23.87 51.0793 21.3515 50.9968 20.7509 50.8106C19.3422 50.3743 19.2748 50.0577 19.2748 43.9251ZM24.3925 47.1124H30.857V44.1965C30.857 40.6473 30.9458 40.7271 24.1232 40.7271H23.5845C23.0727 40.7271 23.0458 40.9054 23.0458 44.106C23.0458 47.4876 23.0458 47.4876 24.3925 47.1124Z" fill="#333333"/>
<path d="M62.1017 37.2681V42.3763C62.1017 47.4872 62.1017 47.4872 63.4485 47.1121C70.2631 47.1121 69.9129 47.6123 69.9129 41.8948V37.002H73.9532C73.9532 51.4993 74.3384 51.1029 65.9023 51.1029C57.7759 51.1029 58.3335 51.6803 58.3335 43.2596L58.3308 36.8823L62.1017 37.2681Z" fill="#333333"/>
<path d="M41.6311 27.9564L41.9112 27.2248C42.0648 26.823 42.1833 26.3149 42.1752 26.094C42.159 25.6391 43.1476 20.0839 43.5166 18.9106L48.0956 18.6445H48.3649L52.9439 18.9106L52.3459 23.1009C52.0173 25.405 51.7749 27.3818 51.8665 27.6904C51.6645 27.999 49.3615 28.0602 46.6168 28.0229L41.6311 27.9564Z" fill="#D151A5"/>
<path d="M44.8633 9.3119L40.015 8.77979L40.7369 4.58943C41.1328 2.28541 41.4345 0.308623 41.3618 0H51.5971L51.3305 0.332568C51.185 0.516145 50.7595 2.55146 49.7117 9.04584L45.1327 9.3119H44.8633Z" fill="#99F4B7"/>
<path d="M44.8631 9.31201H45.1325L43.5164 18.3579C43.1474 19.5312 42.1588 25.0864 42.175 25.5413C42.1831 25.7621 42.0646 26.2703 41.911 26.672L41.6309 27.4037C35.3227 19.9302 34.3288 18.5654 34.4231 18.2009C34.4985 17.9215 36.8768 15.8064 39.7104 13.5024L44.8631 9.31201Z" fill="#267CE5"/>
<path d="M49.1729 41.8099V34.3418C52.9142 34.3418 52.9142 34.3418 52.9977 35.6056C53.0785 36.8693 53.0785 36.8693 54.3175 37.0023C55.5566 37.1354 55.5566 37.1354 54.9532 38.894C54.4468 40.3706 54.2394 40.6739 53.6468 40.7856C52.9438 40.9187 52.9438 40.9187 52.9438 44.0155C52.9438 47.1124 52.9438 47.1124 54.2906 47.1124C55.6374 47.1124 55.6374 47.1124 55.6374 49.1078C55.6374 51.1032 55.6374 51.1032 53.2132 51.1032C51.7156 51.1032 50.6005 50.9755 50.2961 50.7706C49.2429 50.0603 49.1729 49.5042 49.1729 41.8099Z" fill="#333333"/>
<path d="M41.3617 40.993L41.0923 46.8462L41.3617 50.571C40.9873 51.2627 37.9786 51.1643 37.6042 50.72C37.3726 50.4433 37.3079 48.698 37.3699 44.3267C37.483 36.526 37.1086 36.9996 43.1556 37.0102C47.4221 37.0182 47.4221 37.0182 47.3575 37.9787C47.2174 40.0805 46.6275 40.5487 43.8424 40.7829L41.3617 40.993Z" fill="#333333"/>
<path d="M58.6002 9.3119L49.7116 9.04584C50.7594 2.55146 51.185 0.516145 51.3304 0.332568L51.5971 0C56.9195 6.33475 58.4952 8.43126 58.5329 8.74254L58.6002 9.3119Z" fill="#FCE572"/>
<path d="M41.3618 0C41.4345 0.308623 41.1328 2.2854 40.7369 4.58943L40.015 8.77979C30.4072 9.2374 30.3991 9.34648 36.4461 4.19035L41.3618 0Z" fill="#267CE5"/>
<path d="M43.5166 18.9105L45.1327 9.86469L49.7117 9.59863L48.0956 18.6445L43.5166 18.9105Z" fill="#FCFCFC"/>
<path d="M51.8665 27.6904C51.7749 27.3818 52.0173 25.405 52.346 23.101L52.9439 18.9106C60.6393 18.9106 61.609 18.9878 61.5309 19.2432C61.4743 19.4268 59.2764 21.4009 56.6475 23.6331L51.8665 27.6904Z" fill="#F99354"/>
<path d="M48.1932 18.4423L49.8093 9.39648L58.698 9.66254L48.4626 18.4423H48.1932Z" fill="#F99354"/>
</svg>
