<svg width="93" height="61" viewBox="0 0 93 61" fill="none" xmlns="http://www.w3.org/2000/svg">
<path d="M2.5891 45.7554C3.02275 44.952 4.7897 43.2093 8.22932 40.1949L13.2393 35.805L1.93457 35.6614L2.09349 31.8142C17.7078 31.8142 17.7321 31.8222 17.5139 34.9137C17.3388 37.3694 16.986 37.8244 11.4615 42.7224L6.65631 46.9793L17.5812 47.123V51.1031C5.04289 51.1031 3.72576 51.0313 3.16281 50.6987C1.82414 49.9032 1.56286 47.6577 2.5891 45.7554Z" fill="#333333"/>
<path d="M77.3776 47.6443L81.9565 47.3782H85.5928C89.229 47.3782 89.229 47.3782 89.229 46.5189C89.229 45.6595 89.229 45.6595 84.1114 46.048C78.0402 46.0293 77.2564 45.1567 77.418 40.9131C77.5688 36.9861 77.2213 37.1538 85.3692 37.0553C93.2532 36.9622 93.1454 36.9276 92.2458 39.1731C91.6748 40.5938 91.6748 40.5938 86.5463 40.6657C81.4178 40.7402 81.4178 40.7402 81.4178 41.3973C81.4178 42.0571 81.4178 42.0571 86.1342 42.0571C92.7118 42.0571 93 42.2593 93 46.8488C93 50.954 92.7091 51.103 84.6097 51.103C77.5526 51.103 77.3533 51.0418 77.3695 48.908L77.3776 47.6443Z" fill="#333333"/>
<path d="M20.2748 43.9249C20.2748 36.3583 19.5503 37.0021 28.0726 37.0021C36.5437 37.0021 36.0346 36.4594 35.8541 45.3084C35.7679 49.5227 35.7302 49.7914 35.1484 50.3634C34.5532 50.954 34.3727 50.9726 28.6167 51.0365C24.87 51.0791 22.3515 50.9966 21.7509 50.8104C20.3422 50.374 20.2748 50.0574 20.2748 43.9249ZM25.3925 47.1122H31.857V44.1962C31.857 40.6471 31.9458 40.7269 25.1232 40.7269H24.5845C24.0727 40.7269 24.0458 40.9052 24.0458 44.1058C24.0458 47.4873 24.0458 47.4873 25.3925 47.1122Z" fill="#333333"/>
<path d="M63.1017 37.2683V42.3766C63.1017 47.4875 63.1017 47.4875 64.4485 47.1123C71.2631 47.1123 70.9129 47.6125 70.9129 41.895V37.0023H74.9532C74.9532 51.4996 75.3384 51.1032 66.9023 51.1032C58.7759 51.1032 59.3335 51.6805 59.3335 43.2599L59.3308 36.8826L63.1017 37.2683Z" fill="#333333"/>
<path d="M42.6311 27.9564L42.9112 27.2248C43.0648 26.823 43.1833 26.3149 43.1752 26.094C43.159 25.6391 44.1476 20.0839 44.5166 18.9106L49.0956 18.6445H49.3649L53.9439 18.9106L53.3459 23.1009C53.0173 25.405 52.7749 27.3818 52.8665 27.6904C52.6645 27.999 50.3615 28.0602 47.6168 28.0229L42.6311 27.9564Z" fill="#D151A5"/>
<path d="M45.8633 9.3119L41.015 8.77979L41.7369 4.58943C42.1328 2.28541 42.4345 0.308623 42.3618 0H52.5971L52.3305 0.332568C52.185 0.516145 51.7595 2.55146 50.7117 9.04584L46.1327 9.3119H45.8633Z" fill="#99F4B7"/>
<path d="M45.8631 9.31201H46.1325L44.5164 18.3579C44.1474 19.5312 43.1588 25.0864 43.175 25.5413C43.1831 25.7621 43.0646 26.2703 42.911 26.672L42.6309 27.4037C36.3227 19.9302 35.3288 18.5654 35.4231 18.2009C35.4985 17.9215 37.8768 15.8064 40.7104 13.5024L45.8631 9.31201Z" fill="#267CE5"/>
<path d="M50.1729 41.8097V34.3416C53.9142 34.3416 53.9142 34.3416 53.9977 35.6053C54.0785 36.8691 54.0785 36.8691 55.3175 37.0021C56.5566 37.1351 56.5566 37.1351 55.9532 38.8937C55.4468 40.3703 55.2394 40.6736 54.6468 40.7854C53.9438 40.9184 53.9438 40.9184 53.9438 44.0153C53.9438 47.1122 53.9438 47.1122 55.2906 47.1122C56.6374 47.1122 56.6374 47.1122 56.6374 49.1076C56.6374 51.103 56.6374 51.103 54.2132 51.103C52.7156 51.103 51.6005 50.9753 51.2961 50.7704C50.2429 50.06 50.1729 49.504 50.1729 41.8097Z" fill="#333333"/>
<path d="M42.3617 40.993L42.0923 46.8462L42.3617 50.571C41.9873 51.2627 38.9786 51.1643 38.6042 50.72C38.3726 50.4433 38.3079 48.698 38.3699 44.3267C38.483 36.526 38.1086 36.9996 44.1556 37.0102C48.4221 37.0182 48.4221 37.0182 48.3575 37.9787C48.2174 40.0805 47.6275 40.5487 44.8424 40.7829L42.3617 40.993Z" fill="#333333"/>
<path d="M59.6002 9.3119L50.7116 9.04584C51.7594 2.55146 52.185 0.516145 52.3304 0.332568L52.5971 0C57.9195 6.33475 59.4952 8.43126 59.5329 8.74254L59.6002 9.3119Z" fill="#FCE572"/>
<path d="M42.3618 0C42.4345 0.308623 42.1328 2.2854 41.7369 4.58943L41.015 8.77979C31.4072 9.2374 31.3991 9.34648 37.4461 4.19035L42.3618 0Z" fill="#267CE5"/>
<path d="M44.5166 18.9105L46.1327 9.86469L50.7117 9.59863L49.0956 18.6445L44.5166 18.9105Z" fill="#FCFCFC"/>
<path d="M52.8665 27.6902C52.7749 27.3816 53.0173 25.4048 53.346 23.1008L53.9439 18.9104C61.6393 18.9104 62.609 18.9876 62.5309 19.243C62.4743 19.4265 60.2764 21.4007 57.6475 23.6329L52.8665 27.6902Z" fill="#F99354"/>
<path d="M49.1932 18.4423L50.8093 9.39648L59.698 9.66254L49.4626 18.4423H49.1932Z" fill="#F99354"/>
</svg>
